<svg xmlns="http://www.w3.org/2000/svg" xmlns:xlink="http://www.w3.org/1999/xlink" width="41" height="24.922" viewBox="0 0 41 24.922"><defs><style>.a{fill:rgba(120,120,128,0.16);}.b{clip-path:url(#a);}.c{fill:#fff;stroke:rgba(0,0,0,0.04);stroke-miterlimit:10;stroke-width:0.5px;}.d{stroke:none;}.e{fill:none;}.f{filter:url(#b);}</style><clipPath id="a"><path class="a" d="M12.748.074c1.4-.08,2.8-.074,4.195-.074h7.088c1.426,0,2.823-.006,4.221.074a17.4,17.4,0,0,1,3.741.572,12.254,12.254,0,0,1,0,23.63,17.451,17.451,0,0,1-3.741.572c-1.4.08-2.8.073-4.194.073h-7.09c-1.425,0-2.822.006-4.221-.074a17.451,17.451,0,0,1-3.741-.572,12.254,12.254,0,0,1,0-23.63A17.4,17.4,0,0,1,12.748.074Z" transform="translate(0 0)"/></clipPath><filter id="b" x="0" y="1.461" width="25" height="26.5" filterUnits="userSpaceOnUse"><feOffset dy="3" input="SourceAlpha"/><feGaussianBlur stdDeviation="0.5" result="c"/><feFlood flood-opacity="0.059"/><feComposite operator="in" in2="c"/><feComposite in="SourceGraphic"/></filter></defs><path class="a" d="M12.748.074c1.4-.08,2.8-.074,4.195-.074h7.088c1.426,0,2.823-.006,4.221.074a17.4,17.4,0,0,1,3.741.572,12.254,12.254,0,0,1,0,23.63,17.451,17.451,0,0,1-3.741.572c-1.4.08-2.8.073-4.194.073h-7.09c-1.425,0-2.822.006-4.221-.074a17.451,17.451,0,0,1-3.741-.572,12.254,12.254,0,0,1,0-23.63A17.4,17.4,0,0,1,12.748.074Z" transform="translate(0 0)"/><g class="b" transform="translate(0 0)"><g transform="translate(1.608 1.608)"><g class="f" transform="matrix(1, 0, 0, 1, -1.61, -1.61)"><g class="c" transform="translate(2 1.96)"><circle class="d" cx="10.5" cy="10.5" r="10.5"/><circle class="e" cx="10.5" cy="10.5" r="10.75"/></g></g></g></g></svg>