<svg xmlns="http://www.w3.org/2000/svg" xmlns:xlink="http://www.w3.org/1999/xlink" width="40.54" height="24.642" viewBox="0 0 40.54 24.642"><defs><style>.a{fill:#34c759;}.b{fill:none;}.c{clip-path:url(#a);}.d{clip-path:url(#b);}.e{fill:#fff;stroke:rgba(0,0,0,0.04);stroke-miterlimit:10;stroke-width:0.5px;}.f{stroke:none;}.g{filter:url(#c);}</style><clipPath id="a"><path class="a" d="M12.6.073C13.988-.006,15.369,0,16.753,0h7.009c1.41,0,2.792-.006,4.174.073a17.206,17.206,0,0,1,3.7.565,12.116,12.116,0,0,1,0,23.365,17.255,17.255,0,0,1-3.7.565c-1.382.079-2.764.072-4.147.072h-7.01c-1.409,0-2.79.006-4.173-.073A17.255,17.255,0,0,1,8.906,24a12.116,12.116,0,0,1,0-23.365A17.206,17.206,0,0,1,12.6.073Z" transform="translate(0 0)"/></clipPath><clipPath id="b"><path class="b" d="M12.6.073C13.988-.006,15.369,0,16.753,0h7.009c1.41,0,2.792-.006,4.174.073a17.206,17.206,0,0,1,3.7.565,12.116,12.116,0,0,1,0,23.365,17.255,17.255,0,0,1-3.7.565c-1.382.079-2.764.072-4.147.072h-7.01c-1.409,0-2.79.006-4.173-.073A17.255,17.255,0,0,1,8.906,24a12.116,12.116,0,0,1,0-23.365A17.206,17.206,0,0,1,12.6.073Z" transform="translate(0 0)"/></clipPath><filter id="c" x="15.77" y="1.321" width="25" height="26.5" filterUnits="userSpaceOnUse"><feOffset dy="3" input="SourceAlpha"/><feGaussianBlur stdDeviation="0.5" result="d"/><feFlood flood-opacity="0.059"/><feComposite operator="in" in2="d"/><feComposite in="SourceGraphic"/></filter></defs><g transform="translate(0 0)"><path class="a" d="M12.6.073C13.988-.006,15.369,0,16.753,0h7.009c1.41,0,2.792-.006,4.174.073a17.206,17.206,0,0,1,3.7.565,12.116,12.116,0,0,1,0,23.365,17.255,17.255,0,0,1-3.7.565c-1.382.079-2.764.072-4.147.072h-7.01c-1.409,0-2.79.006-4.173-.073A17.255,17.255,0,0,1,8.906,24a12.116,12.116,0,0,1,0-23.365A17.206,17.206,0,0,1,12.6.073Z" transform="translate(0 0)"/><path class="b" d="M12.6.073C13.988-.006,15.369,0,16.753,0h7.009c1.41,0,2.792-.006,4.174.073a17.206,17.206,0,0,1,3.7.565,12.116,12.116,0,0,1,0,23.365,17.255,17.255,0,0,1-3.7.565c-1.382.079-2.764.072-4.147.072h-7.01c-1.409,0-2.79.006-4.173-.073A17.255,17.255,0,0,1,8.906,24a12.116,12.116,0,0,1,0-23.365A17.206,17.206,0,0,1,12.6.073Z" transform="translate(0 0)"/><g class="d"><g transform="translate(17.488 1.59)"><g class="g" transform="matrix(1, 0, 0, 1, -17.49, -1.59)"><g class="e" transform="translate(17.77 1.82)"><circle class="f" cx="10.5" cy="10.5" r="10.5"/><circle class="b" cx="10.5" cy="10.5" r="10.75"/></g></g></g></g></g></svg>