<svg xmlns="http://www.w3.org/2000/svg" width="19.949" height="19.949" viewBox="0 0 19.949 19.949"><defs><style>.a{fill:#4cba38;}.b{fill:#fff;}</style></defs><g transform="translate(-647.5 -150.5)"><g transform="translate(647.5 150.5)"><circle class="a" cx="9.974" cy="9.974" r="9.974"/></g><path class="b" d="M4.27,13.768.184,9.682a.629.629,0,0,1,0-.889L1.073,7.9a.629.629,0,0,1,.889,0l2.753,2.752,5.9-5.9a.629.629,0,0,1,.889,0l.889.889a.629.629,0,0,1,0,.889L5.159,13.768A.629.629,0,0,1,4.27,13.768Z" transform="translate(651.188 151.21)"/></g></svg>