<svg xmlns="http://www.w3.org/2000/svg" width="32.159" height="30.834" viewBox="0 0 32.159 30.834">
  <path id="Icon_awesome-star" data-name="Icon awesome-star" d="M15.108,1.018,11.371,8.6,3.009,9.814A1.832,1.832,0,0,0,2,12.939l6.049,5.895L6.615,27.16A1.83,1.83,0,0,0,9.27,29.089l7.48-3.932,7.48,3.932a1.832,1.832,0,0,0,2.655-1.929l-1.431-8.327L31.5,12.939A1.832,1.832,0,0,0,30.49,9.814L22.129,8.6,18.392,1.018a1.833,1.833,0,0,0-3.285,0Z" transform="translate(-0.67 0.751)" fill="none" stroke="#ff8500" stroke-width="1.5"/>
</svg>
