<svg xmlns="http://www.w3.org/2000/svg" width="91.161" height="14.548" viewBox="0 0 91.161 14.548">
  <g id="Group_936" data-name="Group 936" transform="translate(-4748.062 -343.584)">
    <g id="Group_930" data-name="Group 930" transform="translate(110 -5)">
      <path id="Icon_awesome-star" data-name="Icon awesome-star" d="M7.752.47l-1.726,3.5-3.861.563A.846.846,0,0,0,1.7,5.975L4.491,8.7,3.83,12.542a.845.845,0,0,0,1.226.891l3.454-1.816,3.454,1.816a.846.846,0,0,0,1.226-.891L12.53,8.7l2.793-2.722a.846.846,0,0,0-.468-1.443l-3.861-.563L9.269.47a.846.846,0,0,0-1.517,0Z" transform="translate(4637.132 349.085)" fill="#ff8500" stroke="#ff8500" stroke-width="1"/>
    </g>
    <path id="Icon_awesome-star-2" data-name="Icon awesome-star" d="M7.752.47l-1.726,3.5-3.861.563A.846.846,0,0,0,1.7,5.975L4.491,8.7,3.83,12.542a.845.845,0,0,0,1.226.891l3.454-1.816,3.454,1.816a.846.846,0,0,0,1.226-.891L12.53,8.7l2.793-2.722a.846.846,0,0,0-.468-1.443l-3.861-.563L9.269.47a.846.846,0,0,0-1.517,0Z" transform="translate(4823.132 344.085)" fill="none" stroke="#ff8500" stroke-width="1"/>
    <path id="Icon_awesome-star-3" data-name="Icon awesome-star" d="M7.752.47l-1.726,3.5-3.861.563A.846.846,0,0,0,1.7,5.975L4.491,8.7,3.83,12.542a.845.845,0,0,0,1.226.891l3.454-1.816,3.454,1.816a.846.846,0,0,0,1.226-.891L12.53,8.7l2.793-2.722a.846.846,0,0,0-.468-1.443l-3.861-.563L9.269.47a.846.846,0,0,0-1.517,0Z" transform="translate(4804.132 344.085)" fill="none" stroke="#ff8500" stroke-width="1"/>
    <path id="Icon_awesome-star-4" data-name="Icon awesome-star" d="M7.752.47l-1.726,3.5-3.861.563A.846.846,0,0,0,1.7,5.975L4.491,8.7,3.83,12.542a.845.845,0,0,0,1.226.891l3.454-1.816,3.454,1.816a.846.846,0,0,0,1.226-.891L12.53,8.7l2.793-2.722a.846.846,0,0,0-.468-1.443l-3.861-.563L9.269.47a.846.846,0,0,0-1.517,0Z" transform="translate(4785.132 344.085)" fill="none" stroke="#ff8500" stroke-width="1"/>
    <path id="Icon_awesome-star-5" data-name="Icon awesome-star" d="M7.752.47l-1.726,3.5-3.861.563A.846.846,0,0,0,1.7,5.975L4.491,8.7,3.83,12.542a.845.845,0,0,0,1.226.891l3.454-1.816,3.454,1.816a.846.846,0,0,0,1.226-.891L12.53,8.7l2.793-2.722a.846.846,0,0,0-.468-1.443l-3.861-.563L9.269.47a.846.846,0,0,0-1.517,0Z" transform="translate(4766.132 344.085)" fill="none" stroke="#ff8500" stroke-width="1"/>
  </g>
</svg>
