<svg xmlns="http://www.w3.org/2000/svg" width="91.161" height="15.049" viewBox="0 0 91.161 15.049">
  <g id="Group_935" data-name="Group 935" transform="translate(-4748.062 -319)">
    <g id="Group_928" data-name="Group 928" transform="translate(110 -5.584)">
      <path id="Icon_awesome-star" data-name="Icon awesome-star" d="M7.985.487,6.2,4.116l-4,.584a.877.877,0,0,0-.485,1.5L4.6,9.018l-.685,3.987a.876.876,0,0,0,1.272.924l3.582-1.883,3.582,1.883a.877.877,0,0,0,1.272-.924L12.94,9.018l2.9-2.823a.877.877,0,0,0-.485-1.5l-4-.584L9.558.487a.878.878,0,0,0-1.573,0Z" transform="translate(4637.132 325.085)" fill="#ff8500" stroke="#ff8500" stroke-width="1"/>
      <path id="Icon_awesome-star-2" data-name="Icon awesome-star" d="M7.985.487,6.2,4.116l-4,.584a.877.877,0,0,0-.485,1.5L4.6,9.018l-.685,3.987a.876.876,0,0,0,1.272.924l3.582-1.883,3.582,1.883a.877.877,0,0,0,1.272-.924L12.94,9.018l2.9-2.823a.877.877,0,0,0-.485-1.5l-4-.584L9.558.487a.878.878,0,0,0-1.573,0Z" transform="translate(4656.834 325.085)" fill="#ff8500" stroke="#ff8500" stroke-width="1"/>
    </g>
    <path id="Icon_awesome-star-3" data-name="Icon awesome-star" d="M7.752.47l-1.726,3.5-3.861.563A.846.846,0,0,0,1.7,5.975L4.491,8.7,3.83,12.542a.845.845,0,0,0,1.226.891l3.454-1.816,3.454,1.816a.846.846,0,0,0,1.226-.891L12.53,8.7l2.793-2.722a.846.846,0,0,0-.468-1.443l-3.861-.563L9.269.47a.846.846,0,0,0-1.517,0Z" transform="translate(4823.132 319.501)" fill="none" stroke="#ff8500" stroke-width="1"/>
    <path id="Icon_awesome-star-4" data-name="Icon awesome-star" d="M7.752.47l-1.726,3.5-3.861.563A.846.846,0,0,0,1.7,5.975L4.491,8.7,3.83,12.542a.845.845,0,0,0,1.226.891l3.454-1.816,3.454,1.816a.846.846,0,0,0,1.226-.891L12.53,8.7l2.793-2.722a.846.846,0,0,0-.468-1.443l-3.861-.563L9.269.47a.846.846,0,0,0-1.517,0Z" transform="translate(4804.059 319.501)" fill="none" stroke="#ff8500" stroke-width="1"/>
    <path id="Icon_awesome-star-5" data-name="Icon awesome-star" d="M7.752.47l-1.726,3.5-3.861.563A.846.846,0,0,0,1.7,5.975L4.491,8.7,3.83,12.542a.845.845,0,0,0,1.226.891l3.454-1.816,3.454,1.816a.846.846,0,0,0,1.226-.891L12.53,8.7l2.793-2.722a.846.846,0,0,0-.468-1.443l-3.861-.563L9.269.47a.846.846,0,0,0-1.517,0Z" transform="translate(4785.309 319.501)" fill="none" stroke="#ff8500" stroke-width="1"/>
  </g>
</svg>
