<svg xmlns="http://www.w3.org/2000/svg" width="90.661" height="14.548" viewBox="0 0 90.661 14.548">
  <g id="Group_934" data-name="Group 934" transform="translate(-4748.489 -296.75)">
    <g id="Group_926" data-name="Group 926" transform="translate(110.427 -5)">
      <path id="Icon_awesome-star" data-name="Icon awesome-star" d="M7.752.47l-1.726,3.5-3.861.563A.846.846,0,0,0,1.7,5.975L4.491,8.7,3.83,12.542a.845.845,0,0,0,1.226.891l3.454-1.816,3.454,1.816a.846.846,0,0,0,1.226-.891L12.53,8.7l2.793-2.722a.846.846,0,0,0-.468-1.443l-3.861-.563L9.269.47a.846.846,0,0,0-1.517,0Z" transform="translate(4637.132 302.251)" fill="#ff8500" stroke="#ff8500" stroke-width="1"/>
      <path id="Icon_awesome-star-2" data-name="Icon awesome-star" d="M7.752.47l-1.726,3.5-3.861.563A.846.846,0,0,0,1.7,5.975L4.491,8.7,3.83,12.542a.845.845,0,0,0,1.226.891l3.454-1.816,3.454,1.816a.846.846,0,0,0,1.226-.891L12.53,8.7l2.793-2.722a.846.846,0,0,0-.468-1.443l-3.861-.563L9.269.47a.846.846,0,0,0-1.517,0Z" transform="translate(4656.132 302.251)" fill="#ff8500" stroke="#ff8500" stroke-width="1"/>
      <path id="Icon_awesome-star-3" data-name="Icon awesome-star" d="M7.752.47l-1.726,3.5-3.861.563A.846.846,0,0,0,1.7,5.975L4.491,8.7,3.83,12.542a.845.845,0,0,0,1.226.891l3.454-1.816,3.454,1.816a.846.846,0,0,0,1.226-.891L12.53,8.7l2.793-2.722a.846.846,0,0,0-.468-1.443l-3.861-.563L9.269.47a.846.846,0,0,0-1.517,0Z" transform="translate(4675.132 302.251)" fill="#ff8500" stroke="#ff8500" stroke-width="1"/>
    </g>
    <path id="Icon_awesome-star-4" data-name="Icon awesome-star" d="M7.752.47l-1.726,3.5-3.861.563A.846.846,0,0,0,1.7,5.975L4.491,8.7,3.83,12.542a.845.845,0,0,0,1.226.891l3.454-1.816,3.454,1.816a.846.846,0,0,0,1.226-.891L12.53,8.7l2.793-2.722a.846.846,0,0,0-.468-1.443l-3.861-.563L9.269.47a.846.846,0,0,0-1.517,0Z" transform="translate(4823.059 297.251)" fill="none" stroke="#ff8500" stroke-width="1"/>
    <path id="Icon_awesome-star-5" data-name="Icon awesome-star" d="M7.752.47l-1.726,3.5-3.861.563A.846.846,0,0,0,1.7,5.975L4.491,8.7,3.83,12.542a.845.845,0,0,0,1.226.891l3.454-1.816,3.454,1.816a.846.846,0,0,0,1.226-.891L12.53,8.7l2.793-2.722a.846.846,0,0,0-.468-1.443l-3.861-.563L9.269.47a.846.846,0,0,0-1.517,0Z" transform="translate(4804.059 297.251)" fill="none" stroke="#ff8500" stroke-width="1"/>
  </g>
</svg>
