<svg xmlns="http://www.w3.org/2000/svg" width="90.139" height="13.533" viewBox="0 0 90.139 13.533">
  <g id="Group_917" data-name="Group 917" transform="translate(-4638.573 -253.25)">
    <path id="Icon_awesome-star" data-name="Icon awesome-star" d="M7.752.47l-1.726,3.5-3.861.563A.846.846,0,0,0,1.7,5.975L4.491,8.7,3.83,12.542a.845.845,0,0,0,1.226.891l3.454-1.816,3.454,1.816a.846.846,0,0,0,1.226-.891L12.53,8.7l2.793-2.722a.846.846,0,0,0-.468-1.443l-3.861-.563L9.269.47a.846.846,0,0,0-1.517,0Z" transform="translate(4637.132 253.251)" fill="#ff8500"/>
    <path id="Icon_awesome-star-2" data-name="Icon awesome-star" d="M7.752.47l-1.726,3.5-3.861.563A.846.846,0,0,0,1.7,5.975L4.491,8.7,3.83,12.542a.845.845,0,0,0,1.226.891l3.454-1.816,3.454,1.816a.846.846,0,0,0,1.226-.891L12.53,8.7l2.793-2.722a.846.846,0,0,0-.468-1.443l-3.861-.563L9.269.47a.846.846,0,0,0-1.517,0Z" transform="translate(4656.132 253.251)" fill="#ff8500"/>
    <path id="Icon_awesome-star-3" data-name="Icon awesome-star" d="M7.752.47l-1.726,3.5-3.861.563A.846.846,0,0,0,1.7,5.975L4.491,8.7,3.83,12.542a.845.845,0,0,0,1.226.891l3.454-1.816,3.454,1.816a.846.846,0,0,0,1.226-.891L12.53,8.7l2.793-2.722a.846.846,0,0,0-.468-1.443l-3.861-.563L9.269.47a.846.846,0,0,0-1.517,0Z" transform="translate(4675.132 253.251)" fill="#ff8500"/>
    <path id="Icon_awesome-star-4" data-name="Icon awesome-star" d="M7.752.47l-1.726,3.5-3.861.563A.846.846,0,0,0,1.7,5.975L4.491,8.7,3.83,12.542a.845.845,0,0,0,1.226.891l3.454-1.816,3.454,1.816a.846.846,0,0,0,1.226-.891L12.53,8.7l2.793-2.722a.846.846,0,0,0-.468-1.443l-3.861-.563L9.269.47a.846.846,0,0,0-1.517,0Z" transform="translate(4694.132 253.251)" fill="#ff8500"/>
    <path id="Icon_awesome-star-5" data-name="Icon awesome-star" d="M7.752.47l-1.726,3.5-3.861.563A.846.846,0,0,0,1.7,5.975L4.491,8.7,3.83,12.542a.845.845,0,0,0,1.226.891l3.454-1.816,3.454,1.816a.846.846,0,0,0,1.226-.891L12.53,8.7l2.793-2.722a.846.846,0,0,0-.468-1.443l-3.861-.563L9.269.47a.846.846,0,0,0-1.517,0Z" transform="translate(4713.132 253.251)" fill="#ff8500"/>
  </g>
</svg>
