<svg xmlns="http://www.w3.org/2000/svg" width="33.059" height="33.059" viewBox="0 0 33.059 33.059">
  <path id="Icon_ionic-ios-close-circle" data-name="Icon ionic-ios-close-circle" d="M19.9,3.375A16.529,16.529,0,1,0,36.434,19.9,16.527,16.527,0,0,0,19.9,3.375Zm4.188,22.513L19.9,21.7l-4.188,4.188a1.27,1.27,0,1,1-1.8-1.8L18.108,19.9,13.92,15.716a1.27,1.27,0,1,1,1.8-1.8L19.9,18.108l4.188-4.188a1.27,1.27,0,1,1,1.8,1.8L21.7,19.9l4.188,4.188a1.276,1.276,0,0,1,0,1.8A1.262,1.262,0,0,1,24.092,25.888Z" transform="translate(-3.375 -3.375)" fill="#2b6d74"/>
</svg>
